<svg xmlns="http://www.w3.org/2000/svg" width="200" height="200" viewBox="0 0 200 200">
  <defs>
    <style>
      .cls-1 {
        fill: #004d40;
      }

      .cls-2 {
        fill: #fff;
        fill-rule: evenodd;
      }
    </style>
  </defs>
  <g id="_のコピー" data-name="９ のコピー">
    <rect id="長方形_1" data-name="長方形 1" class="cls-1" width="200" height="200"/>
    <path id="W" class="cls-2" d="M821.552,834.776q-1.613-5.419-3.15-10.254l-13.916-45.117q-3.808-12.45-3.808-15.967a5.265,5.265,0,0,1,1.758-4.394q2.2-1.684,8.422-2.2a1.55,1.55,0,0,0,1.538-1.758q0-2.417-1.464-2.417-11.353.586-17.578,0.586-6.521,0-18.458-.586-1.317,0-1.318,2.417a1.485,1.485,0,0,0,1.318,1.758q7.543,0.439,10.547,3.589,1.9,2.124,4.761,11.572-0.807,2.417-2.344,7.031-2.2,6.885-3.662,11.279l-10.913,34.644q-2.637,8.2-5.42,16.186-2.711-9.886-4.687-16.626l-13.037-44.97q-3.444-11.718-3.443-16.114,0-3.222,1.612-4.321,2.123-1.537,10.253-2.27,1.172-.147,1.172-1.758,0-2.417-1.172-2.417-11.644.586-20.727,0.586-5.787,0-18.018-.586-1.319,0-1.318,2.417a1.484,1.484,0,0,0,1.318,1.758,32.092,32.092,0,0,1,6.812,1.172,7.968,7.968,0,0,1,3.589,2.417q2.709,3.3,7.324,19.116L753,832.14q4.467,14.21,7.837,28.711a1,1,0,0,0,1.025.878q0.587,0,6.3-2.709,1.318-4.467,8.277-26.734l12.6-38.525q3.808-11.572,4.175-12.744,3,10.326,3.735,13.183l11.719,37.94q3.735,12.012,8.2,28.564a1.154,1.154,0,0,0,1.1,1.025q0.219,0,6.3-2.709,1.9-8.641,7.47-26.88l15.894-52.735q4.907-16.332,6.885-18.75,2.562-3,10.107-3.808a1.485,1.485,0,0,0,1.319-1.758q0-2.417-1.319-2.417-10.107.586-14.429,0.586-3.369,0-12.6-.366-4.174-.147-6.006-0.22-1.319,0-1.318,2.417a1.484,1.484,0,0,0,1.318,1.758q6.518,0.513,8.935,1.977,2.49,1.539,2.491,5.713,0,4.688-2.71,14.868L828,824.376l-4.468,16.772q-0.439-1.391-1.977-6.372h0Z" transform="translate(-692 -701)"/>
  </g>
</svg>
